<mxfile host="app.diagrams.net" agent="Mozilla/5.0 (Macintosh; Intel Mac OS X 10_15_7) AppleWebKit/605.1.15 (KHTML, like Gecko) Version/18.6 Safari/605.1.15" version="28.2.3">
  <diagram id="Ht1M8jgEwFfnCIfOTk4-" name="Page-1">
    <mxGraphModel dx="564" dy="1151" grid="1" gridSize="10" guides="1" tooltips="1" connect="1" arrows="1" fold="1" page="1" pageScale="1" pageWidth="1169" pageHeight="827" math="0" shadow="0">
      <root>
        <mxCell id="0" />
        <mxCell id="1" parent="0" />
        <mxCell id="UEzPUAAOIrF-is8g5C7q-74" value="AWS Cloud" style="points=[[0,0],[0.25,0],[0.5,0],[0.75,0],[1,0],[1,0.25],[1,0.5],[1,0.75],[1,1],[0.75,1],[0.5,1],[0.25,1],[0,1],[0,0.75],[0,0.5],[0,0.25]];outlineConnect=0;gradientColor=none;html=1;whiteSpace=wrap;fontSize=12;fontStyle=0;shape=mxgraph.aws4.group;grIcon=mxgraph.aws4.group_aws_cloud_alt;strokeColor=#232F3E;fillColor=none;verticalAlign=top;align=left;spacingLeft=30;fontColor=#232F3E;dashed=0;labelBackgroundColor=#ffffff;container=1;pointerEvents=0;collapsible=0;recursiveResize=0;" parent="1" vertex="1">
          <mxGeometry x="90" y="-520" width="1320" height="1330" as="geometry" />
        </mxCell>
        <mxCell id="S5OKsqy-IqU7dxwzRs5K-5" value="" style="rounded=0;whiteSpace=wrap;html=1;labelBackgroundColor=none;fillColor=none;dashed=1;container=1;pointerEvents=0;collapsible=0;recursiveResize=0;" vertex="1" parent="UEzPUAAOIrF-is8g5C7q-74">
          <mxGeometry x="720" y="380" width="300" height="660" as="geometry" />
        </mxCell>
        <mxCell id="S5OKsqy-IqU7dxwzRs5K-6" value="Availability Zone 3" style="text;html=1;align=center;verticalAlign=middle;whiteSpace=wrap;rounded=0;" vertex="1" parent="S5OKsqy-IqU7dxwzRs5K-5">
          <mxGeometry x="101.27" y="620" width="100" height="30" as="geometry" />
        </mxCell>
        <mxCell id="S5OKsqy-IqU7dxwzRs5K-28" value="" style="points=[];aspect=fixed;html=1;align=center;shadow=0;dashed=0;fillColor=#FF6A00;strokeColor=none;shape=mxgraph.alibaba_cloud.alb_application_load_balancer_01;" vertex="1" parent="S5OKsqy-IqU7dxwzRs5K-5">
          <mxGeometry x="110" y="40" width="82.54" height="70" as="geometry" />
        </mxCell>
        <mxCell id="S5OKsqy-IqU7dxwzRs5K-49" value="" style="endArrow=none;dashed=1;html=1;dashPattern=1 3;strokeWidth=2;rounded=0;" edge="1" parent="S5OKsqy-IqU7dxwzRs5K-5">
          <mxGeometry width="50" height="50" relative="1" as="geometry">
            <mxPoint x="-168" y="420" as="sourcePoint" />
            <mxPoint x="110" y="420" as="targetPoint" />
          </mxGeometry>
        </mxCell>
        <mxCell id="S5OKsqy-IqU7dxwzRs5K-54" value="" style="sketch=0;outlineConnect=0;fontColor=#232F3E;gradientColor=none;fillColor=#C925D1;strokeColor=none;dashed=0;verticalLabelPosition=bottom;verticalAlign=top;align=center;html=1;fontSize=12;fontStyle=0;aspect=fixed;pointerEvents=1;shape=mxgraph.aws4.aurora_instance;" vertex="1" parent="S5OKsqy-IqU7dxwzRs5K-5">
          <mxGeometry x="120.64" y="508.73" width="61.27" height="61.27" as="geometry" />
        </mxCell>
        <mxCell id="S5OKsqy-IqU7dxwzRs5K-82" value="ElastiCache&lt;div&gt;(Read replica)&lt;/div&gt;" style="text;html=1;align=center;verticalAlign=middle;whiteSpace=wrap;rounded=0;" vertex="1" parent="S5OKsqy-IqU7dxwzRs5K-5">
          <mxGeometry x="159.99999999999997" y="420" width="130" height="30" as="geometry" />
        </mxCell>
        <mxCell id="S5OKsqy-IqU7dxwzRs5K-85" value="Aurora&amp;nbsp;&lt;div&gt;&lt;div&gt;(Read replica)&lt;/div&gt;&lt;/div&gt;" style="text;html=1;align=center;verticalAlign=middle;whiteSpace=wrap;rounded=0;" vertex="1" parent="S5OKsqy-IqU7dxwzRs5K-5">
          <mxGeometry x="160" y="540" width="130" height="30" as="geometry" />
        </mxCell>
        <mxCell id="S5OKsqy-IqU7dxwzRs5K-91" value="ALB" style="text;html=1;align=center;verticalAlign=middle;whiteSpace=wrap;rounded=0;" vertex="1" parent="S5OKsqy-IqU7dxwzRs5K-5">
          <mxGeometry x="181.26999999999998" y="60" width="60" height="30" as="geometry" />
        </mxCell>
        <mxCell id="S5OKsqy-IqU7dxwzRs5K-101" value="Read" style="text;html=1;align=center;verticalAlign=middle;whiteSpace=wrap;rounded=0;" vertex="1" parent="S5OKsqy-IqU7dxwzRs5K-5">
          <mxGeometry x="153.81" y="470" width="38.73" height="30" as="geometry" />
        </mxCell>
        <mxCell id="S5OKsqy-IqU7dxwzRs5K-12" value="" style="edgeStyle=orthogonalEdgeStyle;rounded=0;orthogonalLoop=1;jettySize=auto;html=1;" edge="1" parent="UEzPUAAOIrF-is8g5C7q-74" source="S5OKsqy-IqU7dxwzRs5K-7" target="S5OKsqy-IqU7dxwzRs5K-10">
          <mxGeometry relative="1" as="geometry" />
        </mxCell>
        <mxCell id="S5OKsqy-IqU7dxwzRs5K-7" value="" style="sketch=0;points=[[0,0,0],[0.25,0,0],[0.5,0,0],[0.75,0,0],[1,0,0],[0,1,0],[0.25,1,0],[0.5,1,0],[0.75,1,0],[1,1,0],[0,0.25,0],[0,0.5,0],[0,0.75,0],[1,0.25,0],[1,0.5,0],[1,0.75,0]];outlineConnect=0;fontColor=#232F3E;fillColor=#8C4FFF;strokeColor=#ffffff;dashed=0;verticalLabelPosition=bottom;verticalAlign=top;align=center;html=1;fontSize=12;fontStyle=0;aspect=fixed;shape=mxgraph.aws4.resourceIcon;resIcon=mxgraph.aws4.cloudfront;" vertex="1" parent="UEzPUAAOIrF-is8g5C7q-74">
          <mxGeometry x="480" y="100" width="80" height="80" as="geometry" />
        </mxCell>
        <mxCell id="S5OKsqy-IqU7dxwzRs5K-21" style="edgeStyle=orthogonalEdgeStyle;rounded=0;orthogonalLoop=1;jettySize=auto;html=1;entryX=0.475;entryY=-0.013;entryDx=0;entryDy=0;entryPerimeter=0;" edge="1" parent="UEzPUAAOIrF-is8g5C7q-74" source="S5OKsqy-IqU7dxwzRs5K-10" target="S5OKsqy-IqU7dxwzRs5K-27">
          <mxGeometry relative="1" as="geometry">
            <mxPoint x="520" y="400" as="targetPoint" />
            <Array as="points" />
          </mxGeometry>
        </mxCell>
        <mxCell id="S5OKsqy-IqU7dxwzRs5K-10" value="" style="sketch=0;points=[[0,0,0],[0.25,0,0],[0.5,0,0],[0.75,0,0],[1,0,0],[0,1,0],[0.25,1,0],[0.5,1,0],[0.75,1,0],[1,1,0],[0,0.25,0],[0,0.5,0],[0,0.75,0],[1,0.25,0],[1,0.5,0],[1,0.75,0]];outlineConnect=0;fontColor=#232F3E;fillColor=#DD344C;strokeColor=#ffffff;dashed=0;verticalLabelPosition=bottom;verticalAlign=top;align=center;html=1;fontSize=12;fontStyle=0;aspect=fixed;shape=mxgraph.aws4.resourceIcon;resIcon=mxgraph.aws4.waf;" vertex="1" parent="UEzPUAAOIrF-is8g5C7q-74">
          <mxGeometry x="480" y="220" width="80" height="80" as="geometry" />
        </mxCell>
        <mxCell id="S5OKsqy-IqU7dxwzRs5K-13" value="Route 53" style="text;html=1;align=center;verticalAlign=middle;whiteSpace=wrap;rounded=0;" vertex="1" parent="UEzPUAAOIrF-is8g5C7q-74">
          <mxGeometry x="558" width="100" height="30" as="geometry" />
        </mxCell>
        <mxCell id="S5OKsqy-IqU7dxwzRs5K-1" value="" style="sketch=0;points=[[0,0,0],[0.25,0,0],[0.5,0,0],[0.75,0,0],[1,0,0],[0,1,0],[0.25,1,0],[0.5,1,0],[0.75,1,0],[1,1,0],[0,0.25,0],[0,0.5,0],[0,0.75,0],[1,0.25,0],[1,0.5,0],[1,0.75,0]];outlineConnect=0;fontColor=#232F3E;fillColor=#8C4FFF;strokeColor=#ffffff;dashed=0;verticalLabelPosition=bottom;verticalAlign=top;align=center;html=1;fontSize=12;fontStyle=0;aspect=fixed;shape=mxgraph.aws4.resourceIcon;resIcon=mxgraph.aws4.route_53;" vertex="1" parent="UEzPUAAOIrF-is8g5C7q-74">
          <mxGeometry x="480" y="-30" width="80" height="80" as="geometry" />
        </mxCell>
        <mxCell id="S5OKsqy-IqU7dxwzRs5K-11" value="" style="edgeStyle=orthogonalEdgeStyle;rounded=0;orthogonalLoop=1;jettySize=auto;html=1;" edge="1" parent="UEzPUAAOIrF-is8g5C7q-74" source="S5OKsqy-IqU7dxwzRs5K-1" target="S5OKsqy-IqU7dxwzRs5K-7">
          <mxGeometry relative="1" as="geometry" />
        </mxCell>
        <mxCell id="S5OKsqy-IqU7dxwzRs5K-15" value="" style="rounded=0;whiteSpace=wrap;html=1;labelBackgroundColor=none;fillColor=none;dashed=1;container=1;pointerEvents=0;collapsible=0;recursiveResize=0;" vertex="1" parent="UEzPUAAOIrF-is8g5C7q-74">
          <mxGeometry x="379" y="380" width="291" height="660" as="geometry" />
        </mxCell>
        <mxCell id="S5OKsqy-IqU7dxwzRs5K-16" value="Availability Zone 2" style="text;html=1;align=center;verticalAlign=middle;whiteSpace=wrap;rounded=0;" vertex="1" parent="S5OKsqy-IqU7dxwzRs5K-15">
          <mxGeometry x="92.92" y="620" width="100" height="30" as="geometry" />
        </mxCell>
        <mxCell id="S5OKsqy-IqU7dxwzRs5K-27" value="" style="points=[];aspect=fixed;html=1;align=center;shadow=0;dashed=0;fillColor=#FF6A00;strokeColor=none;shape=mxgraph.alibaba_cloud.alb_application_load_balancer_01;" vertex="1" parent="S5OKsqy-IqU7dxwzRs5K-15">
          <mxGeometry x="101.65" y="40" width="82.54" height="70" as="geometry" />
        </mxCell>
        <mxCell id="S5OKsqy-IqU7dxwzRs5K-40" value="" style="sketch=0;outlineConnect=0;fontColor=#232F3E;gradientColor=none;fillColor=#C925D1;strokeColor=none;dashed=0;verticalLabelPosition=bottom;verticalAlign=top;align=center;html=1;fontSize=12;fontStyle=0;aspect=fixed;pointerEvents=1;shape=mxgraph.aws4.aurora_instance;" vertex="1" parent="S5OKsqy-IqU7dxwzRs5K-15">
          <mxGeometry x="112.92000000000002" y="510" width="60" height="60" as="geometry" />
        </mxCell>
        <mxCell id="S5OKsqy-IqU7dxwzRs5K-53" value="" style="endArrow=none;dashed=1;html=1;dashPattern=1 3;strokeWidth=2;rounded=0;" edge="1" parent="S5OKsqy-IqU7dxwzRs5K-15">
          <mxGeometry width="50" height="50" relative="1" as="geometry">
            <mxPoint x="175.20000000000005" y="539.5799999999999" as="sourcePoint" />
            <mxPoint x="453.20000000000005" y="539.5799999999999" as="targetPoint" />
          </mxGeometry>
        </mxCell>
        <mxCell id="S5OKsqy-IqU7dxwzRs5K-79" value="ALB" style="text;html=1;align=center;verticalAlign=middle;whiteSpace=wrap;rounded=0;" vertex="1" parent="S5OKsqy-IqU7dxwzRs5K-15">
          <mxGeometry x="172.91999999999996" y="60" width="60" height="30" as="geometry" />
        </mxCell>
        <mxCell id="S5OKsqy-IqU7dxwzRs5K-81" value="ElastiCache&amp;nbsp;&lt;div&gt;(Primary)&lt;/div&gt;" style="text;html=1;align=center;verticalAlign=middle;whiteSpace=wrap;rounded=0;" vertex="1" parent="S5OKsqy-IqU7dxwzRs5K-15">
          <mxGeometry x="151" y="420" width="130" height="30" as="geometry" />
        </mxCell>
        <mxCell id="S5OKsqy-IqU7dxwzRs5K-84" value="Aurora&amp;nbsp;&lt;div&gt;&lt;div&gt;(Primary)&lt;/div&gt;&lt;/div&gt;" style="text;html=1;align=center;verticalAlign=middle;whiteSpace=wrap;rounded=0;" vertex="1" parent="S5OKsqy-IqU7dxwzRs5K-15">
          <mxGeometry x="141" y="540" width="130" height="30" as="geometry" />
        </mxCell>
        <mxCell id="S5OKsqy-IqU7dxwzRs5K-100" value="Write/Read" style="text;html=1;align=center;verticalAlign=middle;whiteSpace=wrap;rounded=0;" vertex="1" parent="S5OKsqy-IqU7dxwzRs5K-15">
          <mxGeometry x="131" y="470" width="90" height="30" as="geometry" />
        </mxCell>
        <mxCell id="S5OKsqy-IqU7dxwzRs5K-88" value="EC2 Instance" style="text;html=1;align=center;verticalAlign=middle;whiteSpace=wrap;rounded=0;" vertex="1" parent="S5OKsqy-IqU7dxwzRs5K-15">
          <mxGeometry x="170.99999999999994" y="260" width="90" height="30" as="geometry" />
        </mxCell>
        <mxCell id="S5OKsqy-IqU7dxwzRs5K-19" value="" style="rounded=0;whiteSpace=wrap;html=1;labelBackgroundColor=none;fillColor=none;dashed=1;container=1;pointerEvents=0;collapsible=0;recursiveResize=0;" vertex="1" parent="UEzPUAAOIrF-is8g5C7q-74">
          <mxGeometry x="40" y="380" width="270" height="660" as="geometry" />
        </mxCell>
        <mxCell id="S5OKsqy-IqU7dxwzRs5K-20" value="Availability Zone 1" style="text;html=1;align=center;verticalAlign=middle;whiteSpace=wrap;rounded=0;" vertex="1" parent="S5OKsqy-IqU7dxwzRs5K-19">
          <mxGeometry x="89.63" y="620" width="100" height="30" as="geometry" />
        </mxCell>
        <mxCell id="S5OKsqy-IqU7dxwzRs5K-74" style="edgeStyle=orthogonalEdgeStyle;rounded=0;orthogonalLoop=1;jettySize=auto;html=1;" edge="1" parent="S5OKsqy-IqU7dxwzRs5K-19" source="S5OKsqy-IqU7dxwzRs5K-26" target="S5OKsqy-IqU7dxwzRs5K-35">
          <mxGeometry relative="1" as="geometry" />
        </mxCell>
        <mxCell id="S5OKsqy-IqU7dxwzRs5K-26" value="" style="points=[];aspect=fixed;html=1;align=center;shadow=0;dashed=0;fillColor=#FF6A00;strokeColor=none;shape=mxgraph.alibaba_cloud.alb_application_load_balancer_01;" vertex="1" parent="S5OKsqy-IqU7dxwzRs5K-19">
          <mxGeometry x="104.63" y="40" width="70.75" height="60" as="geometry" />
        </mxCell>
        <mxCell id="S5OKsqy-IqU7dxwzRs5K-29" value="" style="rounded=1;arcSize=10;dashed=1;fillColor=none;gradientColor=none;dashPattern=8 3 1 3;strokeWidth=2;" vertex="1" parent="S5OKsqy-IqU7dxwzRs5K-19">
          <mxGeometry x="20" y="140" width="920" height="200" as="geometry" />
        </mxCell>
        <mxCell id="S5OKsqy-IqU7dxwzRs5K-30" value="" style="sketch=0;points=[[0,0,0],[0.25,0,0],[0.5,0,0],[0.75,0,0],[1,0,0],[0,1,0],[0.25,1,0],[0.5,1,0],[0.75,1,0],[1,1,0],[0,0.25,0],[0,0.5,0],[0,0.75,0],[1,0.25,0],[1,0.5,0],[1,0.75,0]];outlineConnect=0;fontColor=#232F3E;fillColor=#ED7100;strokeColor=#ffffff;dashed=0;verticalLabelPosition=bottom;verticalAlign=top;align=center;html=1;fontSize=12;fontStyle=0;aspect=fixed;shape=mxgraph.aws4.resourceIcon;resIcon=mxgraph.aws4.auto_scaling2;" vertex="1" parent="S5OKsqy-IqU7dxwzRs5K-19">
          <mxGeometry x="20" y="140" width="40" height="40" as="geometry" />
        </mxCell>
        <mxCell id="S5OKsqy-IqU7dxwzRs5K-75" style="edgeStyle=orthogonalEdgeStyle;rounded=0;orthogonalLoop=1;jettySize=auto;html=1;" edge="1" parent="S5OKsqy-IqU7dxwzRs5K-19" source="S5OKsqy-IqU7dxwzRs5K-35" target="S5OKsqy-IqU7dxwzRs5K-41">
          <mxGeometry relative="1" as="geometry" />
        </mxCell>
        <mxCell id="S5OKsqy-IqU7dxwzRs5K-35" value="" style="sketch=0;outlineConnect=0;fontColor=#232F3E;gradientColor=none;fillColor=#ED7100;strokeColor=none;dashed=0;verticalLabelPosition=bottom;verticalAlign=top;align=center;html=1;fontSize=12;fontStyle=0;aspect=fixed;pointerEvents=1;shape=mxgraph.aws4.a1_instance;" vertex="1" parent="S5OKsqy-IqU7dxwzRs5K-19">
          <mxGeometry x="104.63000000000001" y="209" width="70" height="70" as="geometry" />
        </mxCell>
        <mxCell id="S5OKsqy-IqU7dxwzRs5K-76" style="edgeStyle=orthogonalEdgeStyle;rounded=0;orthogonalLoop=1;jettySize=auto;html=1;" edge="1" parent="S5OKsqy-IqU7dxwzRs5K-19" source="S5OKsqy-IqU7dxwzRs5K-41" target="S5OKsqy-IqU7dxwzRs5K-51">
          <mxGeometry relative="1" as="geometry" />
        </mxCell>
        <mxCell id="S5OKsqy-IqU7dxwzRs5K-41" value="" style="sketch=0;outlineConnect=0;fontColor=#232F3E;gradientColor=none;fillColor=#C925D1;strokeColor=none;dashed=0;verticalLabelPosition=bottom;verticalAlign=top;align=center;html=1;fontSize=12;fontStyle=0;aspect=fixed;pointerEvents=1;shape=mxgraph.aws4.elasticache_for_redis;" vertex="1" parent="S5OKsqy-IqU7dxwzRs5K-19">
          <mxGeometry x="105.72000000000003" y="390" width="67.83" height="60" as="geometry" />
        </mxCell>
        <mxCell id="S5OKsqy-IqU7dxwzRs5K-51" value="" style="sketch=0;outlineConnect=0;fontColor=#232F3E;gradientColor=none;fillColor=#C925D1;strokeColor=none;dashed=0;verticalLabelPosition=bottom;verticalAlign=top;align=center;html=1;fontSize=12;fontStyle=0;aspect=fixed;pointerEvents=1;shape=mxgraph.aws4.aurora_instance;" vertex="1" parent="S5OKsqy-IqU7dxwzRs5K-19">
          <mxGeometry x="109.63" y="509" width="60" height="60" as="geometry" />
        </mxCell>
        <mxCell id="S5OKsqy-IqU7dxwzRs5K-52" value="" style="endArrow=none;dashed=1;html=1;dashPattern=1 3;strokeWidth=2;rounded=0;" edge="1" parent="S5OKsqy-IqU7dxwzRs5K-19">
          <mxGeometry width="50" height="50" relative="1" as="geometry">
            <mxPoint x="170" y="540" as="sourcePoint" />
            <mxPoint x="448" y="540" as="targetPoint" />
          </mxGeometry>
        </mxCell>
        <mxCell id="S5OKsqy-IqU7dxwzRs5K-36" value="" style="sketch=0;outlineConnect=0;fontColor=#232F3E;gradientColor=none;fillColor=#ED7100;strokeColor=none;dashed=0;verticalLabelPosition=bottom;verticalAlign=top;align=center;html=1;fontSize=12;fontStyle=0;aspect=fixed;pointerEvents=1;shape=mxgraph.aws4.a1_instance;" vertex="1" parent="S5OKsqy-IqU7dxwzRs5K-19">
          <mxGeometry x="446.92" y="209" width="70" height="70" as="geometry" />
        </mxCell>
        <mxCell id="S5OKsqy-IqU7dxwzRs5K-38" value="" style="sketch=0;outlineConnect=0;fontColor=#232F3E;gradientColor=none;fillColor=#C925D1;strokeColor=none;dashed=0;verticalLabelPosition=bottom;verticalAlign=top;align=center;html=1;fontSize=12;fontStyle=0;aspect=fixed;pointerEvents=1;shape=mxgraph.aws4.elasticache_for_redis;" vertex="1" parent="S5OKsqy-IqU7dxwzRs5K-19">
          <mxGeometry x="448.01" y="390" width="67.83" height="60" as="geometry" />
        </mxCell>
        <mxCell id="S5OKsqy-IqU7dxwzRs5K-48" value="" style="endArrow=none;dashed=1;html=1;dashPattern=1 3;strokeWidth=2;rounded=0;" edge="1" parent="S5OKsqy-IqU7dxwzRs5K-19" source="S5OKsqy-IqU7dxwzRs5K-41" target="S5OKsqy-IqU7dxwzRs5K-38">
          <mxGeometry width="50" height="50" relative="1" as="geometry">
            <mxPoint x="401.92" y="460" as="sourcePoint" />
            <mxPoint x="451.91999999999996" y="410" as="targetPoint" />
          </mxGeometry>
        </mxCell>
        <mxCell id="S5OKsqy-IqU7dxwzRs5K-43" style="edgeStyle=orthogonalEdgeStyle;rounded=0;orthogonalLoop=1;jettySize=auto;html=1;" edge="1" parent="S5OKsqy-IqU7dxwzRs5K-19" source="S5OKsqy-IqU7dxwzRs5K-36" target="S5OKsqy-IqU7dxwzRs5K-38">
          <mxGeometry relative="1" as="geometry" />
        </mxCell>
        <mxCell id="S5OKsqy-IqU7dxwzRs5K-50" value="" style="sketch=0;outlineConnect=0;fontColor=#232F3E;gradientColor=none;fillColor=#C925D1;strokeColor=none;dashed=0;verticalLabelPosition=bottom;verticalAlign=top;align=center;html=1;fontSize=12;fontStyle=0;aspect=fixed;pointerEvents=1;shape=mxgraph.aws4.elasticache_for_redis;" vertex="1" parent="S5OKsqy-IqU7dxwzRs5K-19">
          <mxGeometry x="797.34" y="390" width="67.83" height="60" as="geometry" />
        </mxCell>
        <mxCell id="S5OKsqy-IqU7dxwzRs5K-69" value="" style="sketch=0;outlineConnect=0;fontColor=#232F3E;gradientColor=none;fillColor=#ED7100;strokeColor=none;dashed=0;verticalLabelPosition=bottom;verticalAlign=top;align=center;html=1;fontSize=12;fontStyle=0;aspect=fixed;pointerEvents=1;shape=mxgraph.aws4.a1_instance;" vertex="1" parent="S5OKsqy-IqU7dxwzRs5K-19">
          <mxGeometry x="796.26" y="209" width="70" height="70" as="geometry" />
        </mxCell>
        <mxCell id="S5OKsqy-IqU7dxwzRs5K-71" style="edgeStyle=orthogonalEdgeStyle;rounded=0;orthogonalLoop=1;jettySize=auto;html=1;" edge="1" parent="S5OKsqy-IqU7dxwzRs5K-19" source="S5OKsqy-IqU7dxwzRs5K-69" target="S5OKsqy-IqU7dxwzRs5K-50">
          <mxGeometry relative="1" as="geometry" />
        </mxCell>
        <mxCell id="S5OKsqy-IqU7dxwzRs5K-22" style="edgeStyle=orthogonalEdgeStyle;rounded=0;orthogonalLoop=1;jettySize=auto;html=1;" edge="1" parent="S5OKsqy-IqU7dxwzRs5K-19">
          <mxGeometry relative="1" as="geometry">
            <mxPoint x="139" y="-40" as="sourcePoint" />
            <mxPoint x="139.46" y="40" as="targetPoint" />
            <Array as="points">
              <mxPoint x="140" y="40" />
              <mxPoint x="140" y="40" />
            </Array>
          </mxGeometry>
        </mxCell>
        <mxCell id="S5OKsqy-IqU7dxwzRs5K-83" value="ElastiCache&lt;div&gt;(Read replica)&lt;/div&gt;" style="text;html=1;align=center;verticalAlign=middle;whiteSpace=wrap;rounded=0;" vertex="1" parent="S5OKsqy-IqU7dxwzRs5K-19">
          <mxGeometry x="150" y="420" width="130" height="30" as="geometry" />
        </mxCell>
        <mxCell id="S5OKsqy-IqU7dxwzRs5K-87" value="Aurora&amp;nbsp;&lt;div&gt;&lt;div&gt;(Read replica)&lt;/div&gt;&lt;/div&gt;" style="text;html=1;align=center;verticalAlign=middle;whiteSpace=wrap;rounded=0;" vertex="1" parent="S5OKsqy-IqU7dxwzRs5K-19">
          <mxGeometry x="140" y="539" width="130" height="30" as="geometry" />
        </mxCell>
        <mxCell id="S5OKsqy-IqU7dxwzRs5K-90" value="EC2 Instance" style="text;html=1;align=center;verticalAlign=middle;whiteSpace=wrap;rounded=0;" vertex="1" parent="S5OKsqy-IqU7dxwzRs5K-19">
          <mxGeometry x="170" y="260" width="90" height="30" as="geometry" />
        </mxCell>
        <mxCell id="S5OKsqy-IqU7dxwzRs5K-92" value="ALB" style="text;html=1;align=center;verticalAlign=middle;whiteSpace=wrap;rounded=0;" vertex="1" parent="S5OKsqy-IqU7dxwzRs5K-19">
          <mxGeometry x="175.38" y="60" width="60" height="30" as="geometry" />
        </mxCell>
        <mxCell id="S5OKsqy-IqU7dxwzRs5K-103" value="Read" style="text;html=1;align=center;verticalAlign=middle;whiteSpace=wrap;rounded=0;" vertex="1" parent="S5OKsqy-IqU7dxwzRs5K-19">
          <mxGeometry x="140" y="470" width="38.73" height="30" as="geometry" />
        </mxCell>
        <mxCell id="S5OKsqy-IqU7dxwzRs5K-24" value="" style="endArrow=none;html=1;rounded=0;" edge="1" parent="UEzPUAAOIrF-is8g5C7q-74">
          <mxGeometry width="50" height="50" relative="1" as="geometry">
            <mxPoint x="180" y="340" as="sourcePoint" />
            <mxPoint x="520" y="340" as="targetPoint" />
          </mxGeometry>
        </mxCell>
        <mxCell id="S5OKsqy-IqU7dxwzRs5K-25" value="" style="endArrow=none;html=1;rounded=0;" edge="1" parent="UEzPUAAOIrF-is8g5C7q-74">
          <mxGeometry width="50" height="50" relative="1" as="geometry">
            <mxPoint x="520" y="340" as="sourcePoint" />
            <mxPoint x="870" y="340" as="targetPoint" />
          </mxGeometry>
        </mxCell>
        <mxCell id="S5OKsqy-IqU7dxwzRs5K-62" style="edgeStyle=orthogonalEdgeStyle;rounded=0;orthogonalLoop=1;jettySize=auto;html=1;" edge="1" parent="UEzPUAAOIrF-is8g5C7q-74" source="S5OKsqy-IqU7dxwzRs5K-56" target="S5OKsqy-IqU7dxwzRs5K-59">
          <mxGeometry relative="1" as="geometry" />
        </mxCell>
        <mxCell id="S5OKsqy-IqU7dxwzRs5K-56" value="" style="points=[];aspect=fixed;html=1;align=center;shadow=0;dashed=0;fillColor=#FF6A00;strokeColor=none;shape=mxgraph.alibaba_cloud.dbs_database_backup;" vertex="1" parent="UEzPUAAOIrF-is8g5C7q-74">
          <mxGeometry x="485.79999999999995" y="1080" width="68.39999999999999" height="63.9" as="geometry" />
        </mxCell>
        <mxCell id="S5OKsqy-IqU7dxwzRs5K-59" value="" style="sketch=0;outlineConnect=0;fontColor=#232F3E;gradientColor=none;fillColor=#7AA116;strokeColor=none;dashed=0;verticalLabelPosition=bottom;verticalAlign=top;align=center;html=1;fontSize=12;fontStyle=0;aspect=fixed;pointerEvents=1;shape=mxgraph.aws4.bucket_with_objects;" vertex="1" parent="UEzPUAAOIrF-is8g5C7q-74">
          <mxGeometry x="486.89000000000004" y="1200" width="67.31" height="70" as="geometry" />
        </mxCell>
        <mxCell id="S5OKsqy-IqU7dxwzRs5K-61" style="edgeStyle=orthogonalEdgeStyle;rounded=0;orthogonalLoop=1;jettySize=auto;html=1;entryX=0.536;entryY=0.019;entryDx=0;entryDy=0;entryPerimeter=0;" edge="1" parent="UEzPUAAOIrF-is8g5C7q-74" source="S5OKsqy-IqU7dxwzRs5K-40" target="S5OKsqy-IqU7dxwzRs5K-56">
          <mxGeometry relative="1" as="geometry" />
        </mxCell>
        <mxCell id="S5OKsqy-IqU7dxwzRs5K-67" style="edgeStyle=orthogonalEdgeStyle;rounded=0;orthogonalLoop=1;jettySize=auto;html=1;" edge="1" parent="UEzPUAAOIrF-is8g5C7q-74" source="S5OKsqy-IqU7dxwzRs5K-63" target="S5OKsqy-IqU7dxwzRs5K-65">
          <mxGeometry relative="1" as="geometry" />
        </mxCell>
        <mxCell id="S5OKsqy-IqU7dxwzRs5K-63" value="" style="sketch=0;points=[[0,0,0],[0.25,0,0],[0.5,0,0],[0.75,0,0],[1,0,0],[0,1,0],[0.25,1,0],[0.5,1,0],[0.75,1,0],[1,1,0],[0,0.25,0],[0,0.5,0],[0,0.75,0],[1,0.25,0],[1,0.5,0],[1,0.75,0]];points=[[0,0,0],[0.25,0,0],[0.5,0,0],[0.75,0,0],[1,0,0],[0,1,0],[0.25,1,0],[0.5,1,0],[0.75,1,0],[1,1,0],[0,0.25,0],[0,0.5,0],[0,0.75,0],[1,0.25,0],[1,0.5,0],[1,0.75,0]];outlineConnect=0;fontColor=#232F3E;fillColor=#E7157B;strokeColor=#ffffff;dashed=0;verticalLabelPosition=bottom;verticalAlign=top;align=center;html=1;fontSize=12;fontStyle=0;aspect=fixed;shape=mxgraph.aws4.resourceIcon;resIcon=mxgraph.aws4.cloudwatch_2;" vertex="1" parent="UEzPUAAOIrF-is8g5C7q-74">
          <mxGeometry x="1129" y="585.5" width="69" height="69" as="geometry" />
        </mxCell>
        <mxCell id="S5OKsqy-IqU7dxwzRs5K-64" style="edgeStyle=orthogonalEdgeStyle;rounded=0;orthogonalLoop=1;jettySize=auto;html=1;entryX=0;entryY=0.5;entryDx=0;entryDy=0;entryPerimeter=0;" edge="1" parent="UEzPUAAOIrF-is8g5C7q-74" source="S5OKsqy-IqU7dxwzRs5K-29" target="S5OKsqy-IqU7dxwzRs5K-63">
          <mxGeometry relative="1" as="geometry" />
        </mxCell>
        <mxCell id="S5OKsqy-IqU7dxwzRs5K-68" style="edgeStyle=orthogonalEdgeStyle;rounded=0;orthogonalLoop=1;jettySize=auto;html=1;" edge="1" parent="UEzPUAAOIrF-is8g5C7q-74" source="S5OKsqy-IqU7dxwzRs5K-65" target="S5OKsqy-IqU7dxwzRs5K-66">
          <mxGeometry relative="1" as="geometry" />
        </mxCell>
        <mxCell id="S5OKsqy-IqU7dxwzRs5K-65" value="" style="sketch=0;outlineConnect=0;fontColor=#232F3E;gradientColor=none;fillColor=#E7157B;strokeColor=none;dashed=0;verticalLabelPosition=bottom;verticalAlign=top;align=center;html=1;fontSize=12;fontStyle=0;aspect=fixed;pointerEvents=1;shape=mxgraph.aws4.alarm;" vertex="1" parent="UEzPUAAOIrF-is8g5C7q-74">
          <mxGeometry x="1129" y="710" width="70" height="70" as="geometry" />
        </mxCell>
        <mxCell id="S5OKsqy-IqU7dxwzRs5K-66" value="" style="sketch=0;points=[[0,0,0],[0.25,0,0],[0.5,0,0],[0.75,0,0],[1,0,0],[0,1,0],[0.25,1,0],[0.5,1,0],[0.75,1,0],[1,1,0],[0,0.25,0],[0,0.5,0],[0,0.75,0],[1,0.25,0],[1,0.5,0],[1,0.75,0]];outlineConnect=0;fontColor=#232F3E;fillColor=#E7157B;strokeColor=#ffffff;dashed=0;verticalLabelPosition=bottom;verticalAlign=top;align=center;html=1;fontSize=12;fontStyle=0;aspect=fixed;shape=mxgraph.aws4.resourceIcon;resIcon=mxgraph.aws4.sns;" vertex="1" parent="UEzPUAAOIrF-is8g5C7q-74">
          <mxGeometry x="1129" y="850" width="70" height="70" as="geometry" />
        </mxCell>
        <mxCell id="S5OKsqy-IqU7dxwzRs5K-42" style="edgeStyle=orthogonalEdgeStyle;rounded=0;orthogonalLoop=1;jettySize=auto;html=1;exitX=0.511;exitY=0.871;exitDx=0;exitDy=0;exitPerimeter=0;" edge="1" parent="UEzPUAAOIrF-is8g5C7q-74" source="S5OKsqy-IqU7dxwzRs5K-27" target="S5OKsqy-IqU7dxwzRs5K-36">
          <mxGeometry relative="1" as="geometry" />
        </mxCell>
        <mxCell id="S5OKsqy-IqU7dxwzRs5K-44" style="edgeStyle=orthogonalEdgeStyle;rounded=0;orthogonalLoop=1;jettySize=auto;html=1;" edge="1" parent="UEzPUAAOIrF-is8g5C7q-74" source="S5OKsqy-IqU7dxwzRs5K-38" target="S5OKsqy-IqU7dxwzRs5K-40">
          <mxGeometry relative="1" as="geometry" />
        </mxCell>
        <mxCell id="S5OKsqy-IqU7dxwzRs5K-70" style="edgeStyle=orthogonalEdgeStyle;rounded=0;orthogonalLoop=1;jettySize=auto;html=1;" edge="1" parent="UEzPUAAOIrF-is8g5C7q-74" source="S5OKsqy-IqU7dxwzRs5K-28" target="S5OKsqy-IqU7dxwzRs5K-69">
          <mxGeometry relative="1" as="geometry" />
        </mxCell>
        <mxCell id="S5OKsqy-IqU7dxwzRs5K-23" style="edgeStyle=orthogonalEdgeStyle;rounded=0;orthogonalLoop=1;jettySize=auto;html=1;entryX=0.489;entryY=0.047;entryDx=0;entryDy=0;entryPerimeter=0;" edge="1" parent="UEzPUAAOIrF-is8g5C7q-74" target="S5OKsqy-IqU7dxwzRs5K-28">
          <mxGeometry relative="1" as="geometry">
            <mxPoint x="870" y="340" as="sourcePoint" />
            <mxPoint x="870" y="380" as="targetPoint" />
            <Array as="points" />
          </mxGeometry>
        </mxCell>
        <mxCell id="S5OKsqy-IqU7dxwzRs5K-77" value="CloudFront" style="text;html=1;align=center;verticalAlign=middle;whiteSpace=wrap;rounded=0;" vertex="1" parent="UEzPUAAOIrF-is8g5C7q-74">
          <mxGeometry x="578" y="130" width="60" height="30" as="geometry" />
        </mxCell>
        <mxCell id="S5OKsqy-IqU7dxwzRs5K-78" value="WAF" style="text;html=1;align=center;verticalAlign=middle;whiteSpace=wrap;rounded=0;" vertex="1" parent="UEzPUAAOIrF-is8g5C7q-74">
          <mxGeometry x="570" y="245" width="60" height="30" as="geometry" />
        </mxCell>
        <mxCell id="S5OKsqy-IqU7dxwzRs5K-93" value="DBS Backup" style="text;html=1;align=center;verticalAlign=middle;whiteSpace=wrap;rounded=0;" vertex="1" parent="UEzPUAAOIrF-is8g5C7q-74">
          <mxGeometry x="538" y="1113.9" width="100" height="30" as="geometry" />
        </mxCell>
        <mxCell id="S5OKsqy-IqU7dxwzRs5K-94" value="S3 Storing Backup" style="text;html=1;align=center;verticalAlign=middle;whiteSpace=wrap;rounded=0;" vertex="1" parent="UEzPUAAOIrF-is8g5C7q-74">
          <mxGeometry x="530" y="1240" width="100" height="30" as="geometry" />
        </mxCell>
        <mxCell id="S5OKsqy-IqU7dxwzRs5K-95" value="CloudWatch" style="text;html=1;align=center;verticalAlign=middle;whiteSpace=wrap;rounded=0;" vertex="1" parent="UEzPUAAOIrF-is8g5C7q-74">
          <mxGeometry x="1207" y="650" width="60" height="30" as="geometry" />
        </mxCell>
        <mxCell id="S5OKsqy-IqU7dxwzRs5K-97" value="CloudWatch&lt;div&gt;Alarm&lt;/div&gt;" style="text;html=1;align=center;verticalAlign=middle;whiteSpace=wrap;rounded=0;" vertex="1" parent="UEzPUAAOIrF-is8g5C7q-74">
          <mxGeometry x="1207" y="760" width="60" height="30" as="geometry" />
        </mxCell>
        <mxCell id="S5OKsqy-IqU7dxwzRs5K-98" value="SNS to developer" style="text;html=1;align=center;verticalAlign=middle;whiteSpace=wrap;rounded=0;" vertex="1" parent="UEzPUAAOIrF-is8g5C7q-74">
          <mxGeometry x="1207" y="890" width="60" height="30" as="geometry" />
        </mxCell>
        <mxCell id="S5OKsqy-IqU7dxwzRs5K-102" style="edgeStyle=orthogonalEdgeStyle;rounded=0;orthogonalLoop=1;jettySize=auto;html=1;" edge="1" parent="UEzPUAAOIrF-is8g5C7q-74" source="S5OKsqy-IqU7dxwzRs5K-50" target="S5OKsqy-IqU7dxwzRs5K-54">
          <mxGeometry relative="1" as="geometry" />
        </mxCell>
        <mxCell id="S5OKsqy-IqU7dxwzRs5K-80" value="AutoScaling Group" style="text;html=1;align=center;verticalAlign=middle;whiteSpace=wrap;rounded=0;" vertex="1" parent="1">
          <mxGeometry x="470" width="130" height="30" as="geometry" />
        </mxCell>
        <mxCell id="S5OKsqy-IqU7dxwzRs5K-89" value="EC2 Instance" style="text;html=1;align=center;verticalAlign=middle;whiteSpace=wrap;rounded=0;" vertex="1" parent="1">
          <mxGeometry x="980" y="120" width="90" height="30" as="geometry" />
        </mxCell>
      </root>
    </mxGraphModel>
  </diagram>
</mxfile>
